<!-- icon666.com - MILLIONS vector ICONS FREE --><svg fill="none" viewBox="0 0 24 24" xmlns="http://www.w3.org/2000/svg"><path d="m6.34311 14.8284c-.78105.781-.78105 2.0474 0 2.8284.78105.7811 2.04738.7811 2.82843 0l2.82846-2.8284 2.8284 2.8284c.781.7811 2.0474.7811 2.8284 0 .7811-.781.7811-2.0474 0-2.8284l-2.8284-2.8284 2.8284-2.82846c.7811-.78105.7811-2.04738 0-2.82843-.781-.78105-2.0474-.78105-2.8284 0l-2.8284 2.82843-2.82846-2.82843c-.78105-.78105-2.04738-.78105-2.82843 0s-.78105 2.04738 0 2.82843l2.82843 2.82846z" fill="rgb(0,0,0)" style="fill: rgb(47, 7, 242);"></path></svg>